<svg height="479pt" viewBox="-24 0 479 479.88368" width="479pt" xmlns="http://www.w3.org/2000/svg"><path d="m404.691406 200.628906c1.054688-2.992187 1.859375-6.066406 2.402344-9.191406 4.183594-23.570312-6.847656-45.746094-25.097656-52.515625-13.703125-77.972656-79.980469-135.796875-159.089844-138.800781s-149.582031 49.628906-169.15625 126.339844c-.042969.132812-.058594.277343-.089844.414062-1 4-1.953125 8-2.664062 12.046875-18.238282 6.769531-29.273438 28.945313-25.097656 52.472656.558593 3.136719 1.378906 6.222657 2.449218 9.226563-11.121094 12-29.40625 36.0625-27.808594 63.574218.296876 7.726563 3.144532 46.6875 29.539063 55.304688 3.101563.992188 6.339844 1.492188 9.597656 1.488281 11.585938 0 27.367188-6.054687 46.769531-27.746093 8.441407-9.425782 14.988282-20.390626 19.277344-32.292969 19.871094 18.675781 44.289063 31.824219 70.816406 38.132812v24.800781l-95.375 9.519532c-18.605468 1.855468-33.449218 16.335937-35.769531 34.890625l-12.796875 102.640625c-.273437 2.269531.441406 4.550781 1.957032 6.261718 1.519531 1.710938 3.699218 2.6875 5.984374 2.6875h352c2.296876 0 4.480469-.984374 5.996094-2.707031 1.519532-1.71875 2.226563-4.007812 1.941406-6.285156l-12.800781-102.671875c-2.332031-18.546875-17.1875-33.015625-35.792969-34.855469l-95.34375-9.480469v-24.800781c26.515626-6.304687 50.917969-19.441406 70.785157-38.101562 4.285156 11.894531 10.824219 22.851562 19.257812 32.269531 19.414063 21.707031 35.199219 27.769531 46.789063 27.769531 3.277344.003907 6.535156-.5 9.65625-1.496093 26.402344-8.609376 29.207031-47.566407 29.496094-55.128907 1.617187-27.664062-16.664063-51.765625-27.832032-63.765625zm-188.152344-184.746094c67.933594.269532 127.511719 45.40625 146.160157 110.730469-37.992188 37.6875-51.382813 35.726563-54.613281 34.101563-8.3125-4.109375-9.28125-27.101563-9.984376-43.886719-.921874-21.832031-1.722656-40.695313-15.335937-44.632813-16.800781-4.800781-32.601563 19.863282-52.664063 51.128907-9.984374 15.550781-28.570312 44.503906-35.082031 44.984375-3.671875-2.679688-5.296875-22.039063-6.152343-32.441406-1.863282-22.457032-3.632813-43.65625-18.191407-47.695313-13.824219-3.839844-24.414062 11.320313-36.640625 28.878906-10.816406 15.527344-24.269531 34.832031-37.085937 34.832031h-.257813c-8.191406-.144531-17.359375-8.566406-26.613281-24.207031 18.28125-65.855469 78.117187-111.523437 146.460937-111.792969zm-141.957031 266.664063c-15.203125 17.007813-29.691406 24.9375-39.554687 21.730469-13.542969-4.394532-18.015625-28.5625-18.488282-40.875-1.136718-19.109375 11.097657-37.261719 20-47.78125 6.882813 9.679687 17.75 15.757812 29.601563 16.550781 2.511719.199219 5.042969.058594 7.519531-.417969 2.558594-.449218 5.054688-1.195312 7.441406-2.222656 3.570313 6.230469 7.636719 12.160156 12.152344 17.746094-3.335937 13.074218-9.734375 25.164062-18.671875 35.269531zm189.390625 58.136719 24.566406 2.398437v32.800781h-144v-32.800781l24.570313-2.445312c3.375 15.621093 22.96875 27.246093 47.429687 27.246093 24.464844 0 44.058594-11.625 47.433594-27.199218zm-202.695312 29.601562c1.390625-11.152344 10.304687-19.859375 21.488281-20.984375l13.773437-1.417969v116h-46.933593zm51.261718 93.597656v-117.550781l16-1.601562v39.152343c0 4.417969 3.582032 8 8 8h160c4.417969 0 8-3.582031 8-8v-39.199218l16 1.601562v117.597656zm259.265626-93.648437 11.671874 93.648437h-46.9375v-116l13.753907 1.375c11.1875 1.117188 20.113281 9.824219 21.511719 20.976563zm-124.066407-31.152344c-3.109375 6.570313-15.40625 12.800781-31.199219 12.800781-15.789062 0-28.070312-6.269531-31.199218-12.800781 4.105468-.410156 7.222656-3.875 7.199218-8v-28.964843c15.914063 2.355468 32.089844 2.355468 48 0v28.964843c-.019531 4.125 3.097657 7.589844 7.199219 8zm-31.199219-51.199219c-54.527343 0-103.648437-28.65625-125.117187-73.007812-1.066406-2.203125-3.085937-3.792969-5.472656-4.324219-2.390625-.527343-4.890625.066407-6.785157 1.613281-2.398437 1.972657-5.261718 3.296876-8.320312 3.839844-1.253906.25-2.535156.316406-3.808594.199219-9.796875-1.15625-18.179687-7.570313-21.863281-16.71875-1.652344-3.425781-2.8125-7.0625-3.457031-10.808594-3.054688-17.257812 4.953125-33.199219 17.867187-35.527343 2.40625-.460938 4.46875-1.996094 5.597657-4.167969 9.863281 12.457031 20.152343 18.726562 31.199218 18.933593h.625c21.128906 0 36.550782-22.148437 50.175782-41.703124 5.785156-8.304688 15.464843-22.191407 19.136718-22.632813 4 2.402344 5.769532 23.496094 6.617188 33.640625 1.886718 22.722656 3.519531 42.34375 17.398437 46.402344 1.398438.40625 2.847657.613281 4.304688.613281 15.40625 0 30.398437-23.335937 48.933593-52.222656 9.832032-15.3125 28.144532-43.832031 34.339844-44.601563 3.0625 2.769532 3.78125 19.90625 4.207032 30.136719.976562 23.082031 2.078124 49.234375 18.886718 57.554687 15.023438 7.429688 36.097656-2.179687 65.761719-30.074218.070313.464844.191406.914062.261719 1.382812.484375 3.417969 3.101562 6.140625 6.496094 6.753906 12.914062 2.328126 20.921874 18.273438 17.855468 35.566407-.640625 3.738281-1.800781 7.371093-3.453125 10.785156-3.792969 9.253906-12.347656 15.6875-22.289062 16.761719-1.125.058594-2.253907-.015625-3.359375-.226563-3.066406-.546875-5.941406-1.871093-8.34375-3.847656-1.898438-1.546875-4.398438-2.140625-6.785156-1.609375-2.390626.527344-4.40625 2.121094-5.472657 4.320312-21.488281 44.3125-70.609375 72.96875-125.136719 72.96875zm200-24.3125c-.480468 12.144532-4.949218 36.289063-18.460937 40.699219-9.898437 3.199219-24.371094-4.714843-39.609375-21.746093-8.910156-10.105469-15.289062-22.183594-18.609375-35.238282 4.519531-5.585937 8.582031-11.523437 12.152344-17.753906 2.394531 1.027344 4.898437 1.777344 7.464843 2.234375 2.324219.445313 4.699219.59375 7.0625.4375 11.992188-.75 23.015626-6.839844 30.03125-16.589844 8.882813 10.519531 21.121094 28.703125 19.96875 47.957031zm0 0"/><path d="m296.539062 399.882812h-160c-4.417968 0-8 3.582032-8 8v8c.027344 22.082032 17.921876 39.972657 40 40h96c22.082032-.027343 39.976563-17.917968 40-40v-8c0-4.417968-3.582031-8-8-8zm-32 40h-96c-13.253906 0-24-10.746093-24-24h144c0 13.253907-10.742187 24-24 24zm0 0"/></svg>